<?xml version="1.0" encoding="UTF-8" standalone="no"?>
<svg
   xmlns:dc="http://purl.org/dc/elements/1.1/"
   xmlns:cc="http://creativecommons.org/ns#"
   xmlns:rdf="http://www.w3.org/1999/02/22-rdf-syntax-ns#"
   xmlns:svg="http://www.w3.org/2000/svg"
   xmlns="http://www.w3.org/2000/svg"
   class="l-logo__img"
   width="500"
   height="500"
   viewBox="0 0 500 500"
   version="1.1">
  <g
     transform="scale(7.827176,7.827176)"
     id="g12"
     style="fill:none">
    <path
       d="m 0.43,0.43 0,63.02 63.03,0 0,-63.02 z"
       id="path2"
       style="fill:#ffffff" />
    <path
       d="m 0.43,0.43 0,63.02 63.03,0 0,-63.02 z m 58.84,26.2 c -0.1,1.96 -0.73,4.4 -1.28,6.04 -2.22,6.58 -4.79,10.67 -10.74,10.67 -1.75,0 -4.86,-0.47 -6,-3.59 l -0.28,-0.73 -0.48,0.61 a 9.69,9.69 0 0 1 -7.59,3.73 c -2.27,0.01 -4.1,-0.75 -5.27,-2.2 l -0.33,-0.4 -0.34,0.38 c -1.26,1.4 -3.46,2.2 -6.03,2.2 a 6.53,6.53 0 0 1 -4.9,-1.93 L 15.73,41.07 15.4,41.4 C 14.12,42.68 12.12,43.33 9.6,43.27 6.53,43.2 4.67,41.49 4.61,38.7 4.51,34.4 8.68,25.35 10.41,22.6 a 5.18,5.18 0 0 1 4.7,-2.73 c 1.4,0 2.35,0.29 2.91,0.89 0.52,0.54 0.62,1 0.66,2.11 l 0.06,1.43 0.76,-1.21 c 1.83,-2.95 4.85,-3.35 7.86,-3.35 2.08,0 3.9,0.76 4.63,1.95 l 0.27,0.44 0.4,-0.33 a 9.45,9.45 0 0 1 6.14,-2.04 c 2.63,0 4.55,0.65 5.69,1.95 0.26,0.29 0.43,0.5 0.67,1 l 0.3,0.61 0.43,-0.52 a 8.46,8.46 0 0 1 6.8,-2.98 c 2.24,0 3.94,0.6 5.06,1.77 1.4,1.48 1.6,3.55 1.52,5.03 z"
       id="path4"
       style="fill:#ffed00" />
    <path
       d="m 0.43,0.43 0,63.02 63.03,0 0,-63.02 z m 60.61,28.61 c -0.29,2.3 -1.84,6.55 -2.66,8.24 -2.2,4.56 -5.16,8.05 -10.85,8.05 -3.04,0 -5.54,-0.96 -7,-2.83 a 11.44,11.44 0 0 1 -7.64,2.86 c -2.2,0 -4.14,-0.63 -5.62,-1.8 a 10.92,10.92 0 0 1 -6.28,1.79 9.02,9.02 0 0 1 -5.32,-1.6 10.5,10.5 0 0 1 -6.12,1.52 C 5.48,45.17 2.66,42.59 2.58,38.84 2.48,33.86 6.68,24.74 8.65,21.59 a 7.34,7.34 0 0 1 6.5,-3.74 c 3,0 4.1,0.86 4.63,1.95 2.32,-1.96 5.39,-2.08 7.58,-2.08 2.4,0 3.92,0.64 5.21,1.67 a 11.81,11.81 0 0 1 6.26,-1.62 c 3.1,0 5.41,0.72 7.02,2.31 a 10.45,10.45 0 0 1 6.87,-2.28 c 3.48,0 5.77,1.26 7.11,3.13 1.9,2.64 1.56,5.3 1.21,8.11 z"
       id="path6"
       style="fill:#e3000b" />
    <path
       d="m 0,0 0,63.88 63.88,0 0,-63.88 z M 63,0.88 63,63 0.88,63 0.88,0.88 Z"
       id="path8"
       style="fill:#000000" />
    <path
       d="m 60.73,19.17 0,-0.44 0.3,0 c 0.21,0 0.33,0.08 0.33,0.22 0,0.11 -0.07,0.22 -0.3,0.22 z m 1.06,0.9 -0.18,-0.32 c -0.16,-0.28 -0.2,-0.32 -0.34,-0.37 0.27,-0.04 0.43,-0.21 0.43,-0.45 0,-0.25 -0.16,-0.44 -0.5,-0.44 l -0.8,0 0,1.58 0.33,0 0,-0.65 0.06,0 c 0.14,0 0.2,0.02 0.26,0.08 0.07,0.07 0.16,0.2 0.22,0.31 l 0.13,0.26 0.4,0 z m -0.78,-2.03 a 1.2300102,1.2300102 0 1 1 0.01,2.46 1.23,1.23 0 0 1 0,-2.46 z m 0,-0.3 a 1.53,1.53 0 1 0 0,3.06 1.53,1.53 0 0 0 0,-3.06 z m -8.33,1.64 a 8.9,8.9 0 0 0 -7.13,3.14 4.03,4.03 0 0 0 -0.73,-1.1 c -1.27,-1.43 -3.3,-2.1 -6.03,-2.1 -2.66,0 -4.88,0.83 -6.42,2.14 -0.8,-1.3 -2.72,-2.16 -5.02,-2.16 -3,0 -6.28,0.43 -8.23,3.56 -0.04,-1.13 -0.15,-1.73 -0.78,-2.4 -0.77,-0.81 -2.02,-1.03 -3.23,-1.03 a 5.6,5.6 0 0 0 -5.08,2.94 c -1.74,2.77 -5.96,11.91 -5.86,16.34 0.06,2.86 1.98,4.92 5.41,5 2.68,0.07 4.79,-0.65 6.13,-2 a 6.95,6.95 0 0 0 5.22,2.07 c 2.45,0 4.9,-0.74 6.35,-2.34 1.23,1.5 3.15,2.38 5.62,2.37 a 10.14,10.14 0 0 0 7.93,-3.9 c 1.02,2.77 3.6,3.87 6.42,3.87 6.18,0 8.9,-4.25 11.16,-10.97 0.5,-1.51 1.19,-4.04 1.3,-6.16 0.18,-3.53 -1.31,-7.27 -7.03,-7.27 z m -41.11,16.9 c 3.2,-0.56 4,0.6 3.9,1.66 -0.3,3.2 -3.24,3.92 -5.8,3.86 C 7.83,41.76 6.16,40.91 6.11,38.76 6.03,35 9.87,26.3 11.67,23.42 c 0.84,-1.37 1.85,-2.05 3.47,-2.05 1.54,0 1.92,0.8 1.9,1.74 -0.06,2.51 -4.13,10.17 -5.47,13.16 z m 10.41,-2.96 a 33.1,33.1 0 0 0 -0.93,3.04 10.5,10.5 0 0 1 3.18,-0.41 c 1.53,0.04 2.52,0.67 2.52,1.94 0,3.08 -3.4,3.98 -5.77,3.99 -2.59,0 -4.87,-1.48 -4.87,-4.31 0,-3.33 1.8,-8.37 3.5,-11.72 2.07,-4.13 4.2,-4.67 7.85,-4.67 1.6,0 3.45,0.68 3.45,2.2 0,2.1 -1.78,2.9 -3.54,3 -0.76,0.05 -1.92,0.09 -2.61,0.04 0,0 -0.59,0.9 -1.21,2.49 3.27,-0.46 4.65,0.28 4.1,2.17 -0.75,2.55 -2.96,2.72 -5.67,2.24 z m 16.08,-7.95 c -0.89,0 -1.46,0.56 -1.9,1.16 -0.94,1.34 -3,6.67 -3.32,8.86 -0.21,1.5 0.43,1.8 1.14,1.8 1.14,0 2.41,-1.2 2.85,-3.18 0,0 -2.17,-0.05 -1.57,-1.97 0.58,-1.86 1.68,-2.26 3.5,-2.34 3.59,-0.15 3.23,2.5 2.95,3.92 -0.94,4.59 -4.2,8.27 -8.82,8.27 -3.16,0 -5.13,-1.75 -5.13,-4.97 0,-2.3 1.14,-5.9 2.05,-8.02 1.92,-4.5 3.94,-7.63 9.07,-7.63 3.09,0 5.52,1.1 5.16,4 -0.26,2.11 -1.32,3.36 -3.25,3.5 -0.54,0.05 -2.74,0 -2.01,-2.1 0.26,-0.73 0.36,-1.3 -0.72,-1.3 z m 19.4,3.8 c -0.54,2.7 -1.76,5.9 -3.09,8.28 -2.16,3.9 -4.79,4.44 -7.09,4.41 -2.29,-0.03 -4.88,-0.87 -4.9,-4.41 -0.01,-2.54 1.09,-6.13 2.02,-8.48 1.62,-4.27 3.28,-7.74 8.52,-7.68 6.1,0.07 5.02,5.5 4.54,7.87 z M 53.1,26.5 c -0.06,1.63 -2.45,8.16 -3.3,9.6 -0.37,0.62 -0.78,1.14 -1.53,1.14 -0.65,0 -0.95,-0.47 -0.97,-1 -0.04,-1.47 2.66,-8.85 3.59,-10.05 0.4,-0.64 0.86,-0.74 1.39,-0.73 0.77,0 0.84,0.56 0.82,1.04 z"
       id="path10"
       style="fill:#000000" />
  </g>
</svg>
